<svg width="80" height="70" viewBox="0 0 80 70" fill="none" xmlns="http://www.w3.org/2000/svg">
<path d="M0 10C0 4.48438 4.48438 0 10 0H70C75.5156 0 80 4.48438 80 10V60C80 65.5156 75.5156 70 70 70H10C4.48438 70 0 65.5156 0 60V10ZM50.5937 26.6406C49.8906 25.6094 48.7344 25 47.5 25C46.2656 25 45.0938 25.6094 44.4063 26.6406L30.8125 46.5781L26.6719 41.4062C25.9531 40.5156 24.875 40 23.75 40C22.625 40 21.5313 40.5156 20.8281 41.4062L10.8281 53.9062C9.92188 55.0312 9.75 56.5781 10.375 57.875C11 59.1719 12.3125 60 13.75 60H28.75H33.75H66.25C67.6406 60 68.9219 59.2344 69.5625 58C70.2031 56.7656 70.125 55.2813 69.3437 54.1406L50.5937 26.6406ZM17.5 25C21.6406 25 25 21.6406 25 17.5C25 13.3594 21.6406 10 17.5 10C13.3594 10 10 13.3594 10 17.5C10 21.6406 13.3594 25 17.5 25Z" fill="#B0D4FF"/>
</svg>
